<?xml version="1.0" standalone="no"?>
<!DOCTYPE svg PUBLIC "-//W3C//DTD SVG 20010904//EN"
 "http://www.w3.org/TR/2001/REC-SVG-20010904/DTD/svg10.dtd">
<svg version="1.0" xmlns="http://www.w3.org/2000/svg"
 width="1088.000000pt" height="1088.000000pt" viewBox="0 0 1088.000000 1088.000000"
 preserveAspectRatio="xMidYMid meet">
<metadata>
Created by potrace 1.14, written by Peter Selinger 2001-2017
</metadata>
<g transform="translate(0.000000,1088.000000) scale(0.100000,-0.100000)"
fill="#000000" stroke="none">
<path d="M3328 10395 c-2 -1 -39 -5 -83 -9 -125 -9 -244 -22 -360 -40 -89 -14
-132 -22 -200 -36 -27 -6 -59 -12 -71 -14 -11 -2 -52 -12 -90 -22 -38 -9 -76
-18 -84 -19 -9 0 -21 -5 -28 -9 -7 -4 -16 -5 -19 -2 -3 3 -11 2 -17 -3 -7 -6
-23 -12 -36 -14 -14 -3 -37 -10 -51 -15 -15 -6 -30 -8 -33 -5 -3 4 -6 2 -6 -4
0 -6 -15 -14 -32 -18 -39 -9 -33 -7 -83 -24 -135 -46 -502 -211 -516 -233 -3
-5 -8 -9 -10 -7 -5 2 -72 -34 -114 -61 -16 -11 -38 -23 -47 -26 -10 -4 -18
-10 -18 -14 0 -4 -10 -11 -23 -17 -12 -6 -58 -36 -102 -67 -78 -56 -95 -69
-180 -136 -55 -43 -209 -186 -259 -239 -65 -69 -99 -106 -126 -137 -29 -33
-158 -200 -180 -234 -8 -12 -23 -33 -33 -45 -9 -13 -17 -28 -17 -33 0 -6 -3
-12 -8 -14 -26 -11 -243 -427 -251 -483 -1 -5 -8 -19 -15 -30 -12 -19 -26 -61
-25 -79 1 -5 -3 -12 -8 -15 -5 -3 -19 -42 -33 -86 -13 -44 -27 -85 -32 -91 -4
-6 -5 -13 -2 -17 3 -3 1 -14 -5 -25 -5 -10 -12 -30 -14 -43 -3 -13 -10 -42
-16 -64 -6 -22 -12 -51 -15 -65 -2 -14 -5 -25 -6 -25 -1 0 -3 -9 -4 -20 -2
-11 -9 -48 -15 -83 -12 -65 -17 -97 -27 -167 -3 -22 -7 -50 -9 -63 -30 -173
-27 -674 5 -931 6 -46 9 -90 6 -97 -3 -8 -2 -14 3 -14 4 0 11 -24 14 -52 10
-82 19 -134 43 -243 4 -16 8 -39 9 -50 2 -11 8 -40 15 -65 7 -25 14 -54 16
-65 8 -43 53 -214 61 -235 4 -8 7 -17 7 -20 1 -3 5 -11 9 -17 5 -7 6 -13 3
-13 -3 0 2 -19 10 -42 9 -24 17 -47 18 -53 4 -19 27 -90 36 -110 5 -11 14 -38
21 -60 7 -22 34 -94 61 -160 27 -66 50 -124 52 -130 20 -77 263 -565 377 -760
19 -33 38 -68 42 -77 3 -10 11 -18 17 -18 6 0 8 -4 5 -10 -3 -5 -1 -10 4 -10
6 0 11 -5 11 -10 0 -11 97 -171 109 -180 3 -3 12 -15 19 -27 6 -13 18 -33 25
-45 6 -13 15 -25 18 -28 3 -3 21 -27 39 -55 19 -27 37 -52 42 -53 4 -2 8 -8 8
-13 0 -6 21 -38 47 -73 27 -35 57 -76 68 -92 30 -42 101 -135 132 -173 16 -19
27 -38 25 -43 -1 -4 4 -8 11 -8 7 0 21 -13 30 -30 10 -16 23 -35 30 -42 7 -7
45 -53 85 -101 41 -48 83 -98 95 -111 12 -13 51 -57 87 -97 160 -180 432 -452
611 -611 35 -31 80 -71 99 -88 35 -32 167 -143 250 -212 34 -28 251 -198 325
-256 6 -4 26 -18 45 -32 19 -13 37 -27 40 -30 3 -4 39 -28 80 -55 41 -27 77
-52 78 -57 2 -4 8 -8 12 -8 5 0 55 -29 112 -65 57 -36 109 -65 116 -65 6 0 12
-4 12 -8 0 -5 15 -16 33 -25 37 -20 76 -43 132 -78 22 -14 52 -32 67 -40 15
-8 75 -42 135 -75 59 -34 162 -90 228 -124 66 -34 125 -66 130 -70 6 -5 15 -9
20 -10 6 0 53 -21 105 -47 224 -108 700 -304 775 -319 11 -2 29 -8 40 -13 30
-14 298 -101 330 -107 6 -1 44 -12 85 -24 41 -12 85 -24 99 -27 13 -2 31 -7
40 -12 9 -4 23 -7 31 -6 8 1 20 -3 27 -8 7 -5 17 -6 23 -2 5 3 10 2 10 -2 0
-5 8 -9 18 -10 9 -1 28 -4 42 -7 60 -14 99 -23 170 -37 30 -6 75 -15 100 -20
25 -5 59 -11 75 -14 17 -3 40 -7 51 -9 32 -7 90 -15 137 -21 23 -3 56 -7 72
-10 103 -15 112 -16 260 -30 163 -16 248 -19 505 -19 263 0 388 5 516 19 132
15 198 24 294 42 47 8 101 17 120 18 19 2 36 4 38 5 1 2 7 4 12 5 6 1 12 4 15
5 6 3 9 4 55 13 49 10 67 14 135 32 73 19 67 17 140 40 33 10 62 19 65 20 3 1
19 5 35 10 17 4 36 13 44 19 8 6 16 10 17 9 5 -3 16 0 79 22 48 17 82 31 182
76 51 23 95 40 103 41 3 0 16 8 30 17 14 9 61 34 104 56 44 22 89 48 99 57 11
10 24 15 29 12 4 -3 8 -2 8 3 0 4 27 24 60 42 33 19 60 39 60 43 0 4 4 8 10 8
11 0 90 55 165 113 17 13 52 40 78 60 27 21 45 37 41 37 -4 0 11 13 32 29 49
36 169 155 254 250 36 41 75 85 87 97 12 13 19 24 15 24 -4 0 -2 4 3 8 17 12
164 208 190 253 6 10 32 55 59 101 28 46 65 112 84 148 18 36 38 71 44 78 6 6
7 12 4 12 -4 0 0 12 8 27 31 57 107 243 99 243 -3 0 -1 6 4 13 10 11 51 133
58 169 2 9 8 25 14 36 6 11 8 22 4 25 -3 4 0 13 7 22 7 8 10 15 7 15 -3 0 1
24 10 53 8 28 17 61 18 72 2 11 6 32 9 48 6 28 9 46 20 107 3 19 8 49 11 65 3
17 8 48 11 70 3 22 7 54 9 70 26 194 26 750 1 882 -2 10 -7 47 -11 83 -4 36
-10 81 -14 100 -4 19 -7 46 -7 60 1 14 -2 27 -5 30 -4 3 -9 25 -12 50 -3 25
-8 56 -11 70 -4 14 -9 39 -12 55 -2 17 -9 45 -14 64 -5 19 -7 37 -5 40 3 2 0
9 -5 16 -5 6 -11 26 -12 44 -1 18 -6 35 -10 37 -4 3 -8 16 -8 29 0 13 -4 34
-9 47 -5 13 -28 91 -52 173 -23 83 -45 152 -48 155 -3 3 -7 14 -9 25 -1 11 -7
29 -12 40 -4 11 -27 71 -50 133 -22 62 -51 137 -65 167 -13 29 -21 56 -17 59
3 3 0 6 -6 6 -7 0 -12 6 -12 13 0 8 -6 27 -14 43 -8 16 -22 47 -31 69 -54 123
-232 472 -254 499 -8 9 -10 16 -7 16 4 0 -2 13 -13 29 -12 16 -21 34 -21 40 0
6 -4 11 -10 11 -5 0 -10 4 -10 10 0 10 -84 152 -148 250 -97 150 -217 326
-233 344 -11 11 -19 24 -19 29 0 4 -6 14 -13 21 -6 7 -23 28 -37 46 -14 18
-31 39 -37 46 -7 7 -13 15 -13 19 0 6 -215 274 -260 325 -12 14 -50 58 -83 98
-34 39 -65 72 -69 72 -4 0 -8 7 -8 15 0 8 -7 15 -15 15 -8 0 -15 5 -15 11 0
14 -54 71 -276 293 -145 146 -213 211 -358 341 -64 57 -150 131 -167 143 -11
8 -30 23 -42 35 -23 22 -32 29 -192 156 -49 39 -97 77 -105 84 -9 7 -42 33
-75 57 -70 53 -93 71 -110 88 -8 6 -16 12 -19 12 -5 0 -21 12 -60 45 -7 6 -19
15 -28 20 -9 6 -77 52 -152 103 -74 50 -139 92 -145 92 -6 0 -11 4 -11 9 0 11
-121 72 -149 74 -11 1 -21 5 -21 8 0 4 -29 6 -64 5 -66 -3 -115 -25 -158 -70
-25 -26 -62 -105 -60 -128 0 -10 -3 -20 -9 -23 -5 -4 -5 -14 1 -26 6 -11 7
-19 1 -19 -18 0 24 -101 61 -146 21 -25 38 -42 38 -38 0 5 4 4 8 -1 10 -14 90
-65 102 -65 5 0 10 -4 10 -8 0 -5 24 -24 53 -42 28 -19 54 -37 57 -40 3 -4 37
-28 75 -55 73 -50 175 -127 197 -148 7 -7 38 -32 68 -57 63 -51 51 -41 166
-145 101 -92 283 -273 364 -363 64 -71 163 -186 187 -217 63 -80 89 -112 102
-122 8 -7 11 -13 5 -13 -5 0 -5 -3 1 -8 17 -12 75 -90 75 -101 0 -5 4 -11 9
-13 7 -3 191 -274 191 -283 0 -1 18 -33 40 -69 22 -36 40 -70 40 -75 0 -5 4
-11 8 -13 13 -5 193 -377 207 -428 4 -14 11 -29 15 -35 4 -5 18 -41 30 -80 13
-38 26 -74 30 -80 6 -8 20 -51 24 -75 1 -3 5 -11 9 -17 5 -7 6 -13 3 -13 -3 0
-1 -12 5 -27 6 -16 12 -35 14 -43 2 -8 8 -30 14 -48 5 -18 11 -36 12 -40 1 -4
3 -11 4 -17 6 -20 18 -70 20 -85 5 -28 16 -85 20 -100 2 -8 6 -31 9 -50 3 -19
8 -53 12 -75 21 -130 28 -238 28 -405 0 -145 -6 -255 -18 -325 -3 -16 -8 -46
-11 -65 -10 -60 -13 -74 -24 -123 -6 -27 -9 -53 -6 -58 4 -5 2 -9 -3 -9 -6 0
-24 -52 -38 -112 -1 -5 -3 -10 -4 -13 -1 -3 -3 -8 -5 -12 -1 -5 -5 -17 -9 -28
-4 -11 -13 -33 -19 -50 -31 -86 -165 -348 -188 -365 -3 -3 -13 -18 -22 -35 -8
-16 -25 -40 -36 -52 -12 -12 -21 -25 -21 -28 0 -3 -8 -14 -17 -24 -10 -10 -29
-32 -41 -47 -41 -50 -137 -147 -188 -191 -27 -24 -57 -50 -66 -59 -10 -10 -28
-24 -41 -33 -158 -107 -226 -151 -235 -151 -6 0 -12 -3 -14 -7 -4 -10 -164
-88 -233 -114 -27 -11 -59 -23 -70 -28 -49 -22 -261 -86 -315 -96 -14 -3 -36
-7 -50 -10 -35 -8 -59 -13 -100 -19 -19 -3 -46 -8 -60 -10 -201 -35 -655 -41
-845 -11 -16 3 -50 7 -75 10 -56 6 -117 14 -150 20 -14 3 -40 8 -59 11 -54 9
-114 22 -251 56 -47 11 -92 22 -100 23 -8 2 -16 4 -17 5 -3 3 -5 3 -48 15 -16
4 -66 19 -110 33 -44 14 -83 27 -87 28 -5 1 -10 3 -13 4 -3 1 -8 3 -12 5 -5 1
-15 4 -23 8 -8 3 -49 17 -90 32 -41 15 -91 34 -110 42 -19 8 -44 19 -55 23
-87 35 -377 169 -385 179 -3 3 -34 21 -70 39 -67 33 -115 60 -255 139 -78 44
-265 162 -275 173 -3 3 -52 36 -110 74 -96 63 -221 156 -284 211 -6 6 -40 35
-76 65 -137 117 -389 363 -490 479 -30 35 -68 78 -85 96 -16 18 -43 50 -60 71
-16 21 -52 65 -78 98 -26 34 -53 68 -60 76 -16 20 -94 130 -150 213 -52 76
-175 276 -197 322 -8 17 -18 32 -22 35 -5 4 -133 266 -173 355 -45 101 -152
403 -159 450 -1 5 -5 16 -9 23 -5 6 -6 12 -3 12 2 0 0 15 -5 33 -6 17 -12 43
-15 57 -3 14 -7 33 -10 42 -6 20 -14 60 -19 98 -2 14 -4 25 -5 25 -3 0 -10 41
-12 70 -1 17 -4 34 -7 40 -2 5 -6 21 -7 35 -2 14 -6 52 -10 85 -8 77 -13 477
-5 490 3 6 6 30 7 55 1 25 3 45 4 45 3 0 7 26 14 84 4 29 8 57 11 61 2 4 7 22
10 41 14 80 61 233 102 334 58 139 189 374 214 383 5 2 9 9 9 16 0 7 10 24 23
38 12 14 35 42 52 64 25 34 228 238 268 271 13 10 147 106 188 135 89 60 314
168 459 220 30 11 62 21 70 23 8 2 56 15 106 29 50 15 103 27 118 28 14 1 26
5 26 8 0 3 10 6 23 6 12 1 36 5 52 8 17 3 48 8 70 10 22 3 40 5 40 6 0 7 178
22 272 24 35 1 63 5 63 10 0 6 5 5 12 -2 7 -7 17 -8 30 -1 13 7 18 6 18 -3 0
-9 3 -9 11 -1 8 8 20 8 35 3 15 -6 24 -6 24 0 0 6 10 6 26 0 16 -7 23 -7 19 0
-4 6 2 7 18 1 16 -6 28 -6 36 2 6 6 11 7 11 1 0 -5 21 -9 48 -10 26 -1 81 -4
122 -8 41 -3 97 -8 125 -11 27 -2 61 -7 75 -11 14 -4 39 -8 55 -9 17 -2 46 -6
65 -10 19 -4 44 -8 55 -10 11 -1 20 -3 20 -5 0 -1 14 -3 30 -4 28 -3 124 -24
205 -46 19 -5 55 -14 80 -20 25 -6 56 -15 70 -20 14 -5 72 -23 130 -41 57 -17
111 -35 120 -40 32 -17 147 -49 180 -50 89 -2 165 38 215 114 34 53 41 200 11
259 -20 41 -75 100 -110 116 -77 37 -143 65 -153 65 -7 0 -13 4 -13 9 0 4 -3
7 -7 7 -5 -1 -11 0 -15 1 -5 1 -11 3 -15 5 -5 1 -30 11 -56 23 -27 12 -53 22
-58 22 -5 0 -17 4 -27 9 -38 20 -91 41 -104 41 -8 0 -18 3 -22 8 -4 4 -11 7
-14 8 -4 0 -14 4 -22 7 -31 13 -287 99 -335 112 -27 8 -103 30 -168 49 -65 18
-120 34 -122 35 -3 1 -6 1 -7 2 -8 2 -46 11 -63 14 -11 2 -30 6 -42 9 -13 4
-32 8 -44 11 -11 2 -29 7 -39 10 -26 8 -59 15 -99 21 -19 2 -37 6 -40 8 -4 3
-26 7 -51 11 -25 4 -49 9 -54 12 -5 3 -29 7 -53 9 -24 1 -50 7 -57 13 -7 6
-15 8 -18 5 -3 -3 -32 -1 -64 5 -33 6 -85 13 -117 16 -32 4 -68 8 -80 11 -12
3 -40 6 -62 8 -73 7 -179 18 -225 23 -50 5 -697 13 -702 8z"/>
</g>
</svg>
