<?xml version="1.0" encoding="UTF-8"?><svg id="Layer_2" xmlns="http://www.w3.org/2000/svg" viewBox="0 0 45.07 62.93"><defs><style>.cls-1{fill:#fafafa;stroke-width:0px;}</style></defs><g id="Layer_1-2"><path class="cls-1" d="m15.7,0c2.54,0,4.92.49,7.13,1.48,2.21.98,4.25,2.3,6.12,3.96,1.87,1.66,3.58,3.58,5.11,5.76,1.54,2.19,2.93,4.45,4.18,6.8.82,1.54,1.63,3.36,2.45,5.47.82,2.11,1.55,4.3,2.2,6.55.65,2.26,1.18,4.45,1.58,6.59.41,2.14.61,4.02.61,5.65,0,3.6-.68,6.7-2.05,9.29-1.37,2.59-3.29,4.74-5.76,6.44-2.47,1.7-5.4,2.95-8.78,3.74-3.38.79-7.09,1.19-11.12,1.19-2.59,0-4.96-.24-7.09-.72-2.14-.48-3.96-1.18-5.47-2.09-1.51-.91-2.69-1.98-3.53-3.2-.84-1.22-1.26-2.6-1.26-4.14,0-1.68.44-3.47,1.33-5.36.89-1.9,1.87-3.85,2.95-5.87s2.06-4.06,2.95-6.12c.89-2.06,1.33-4.08,1.33-6.05,0-1.63-.31-3.11-.94-4.43-.62-1.32-1.3-2.6-2.02-3.85-.72-1.25-1.39-2.54-2.02-3.89-.62-1.34-.94-2.83-.94-4.46s.3-3.22.9-4.75c.6-1.54,1.45-2.89,2.56-4.07,1.1-1.18,2.47-2.12,4.1-2.84,1.63-.72,3.46-1.08,5.47-1.08Zm5.9,17.93c-.58,0-1.01.23-1.3.68-.29.46-.5,1.01-.65,1.66s-.22,1.36-.22,2.12v5.58c0,1.37.13,2.66.4,3.89s.7,2.27,1.3,3.13c.6.86,1.48,1.3,2.63,1.3,1.44,0,2.69-.46,3.74-1.37,1.06-.91,1.58-2.23,1.58-3.96,0-1.15-.25-2.48-.76-4-.5-1.51-1.13-2.93-1.87-4.25-.74-1.32-1.56-2.45-2.45-3.38-.89-.94-1.69-1.4-2.41-1.4Z"/></g></svg>