<?xml version="1.0" encoding="utf-8"?>
<!-- Generator: Adobe Illustrator 25.4.1, SVG Export Plug-In . SVG Version: 6.00 Build 0)  -->
<svg version="1.1" id="Layer_1" xmlns="http://www.w3.org/2000/svg" xmlns:xlink="http://www.w3.org/1999/xlink" x="0px" y="0px"
	 viewBox="0 0 47.8 43.6" style="enable-background:new 0 0 47.8 43.6;" xml:space="preserve">
<style type="text/css">
	.st0{fill:url(#SVGID_1_);}
</style>
<g id="Layer_2_00000078725228977673787530000000449394350380731024_">
	<g id="Layer_1-2">
		<linearGradient id="SVGID_1_" gradientUnits="userSpaceOnUse" x1="-0.2074" y1="21.8018" x2="47.6097" y2="21.8018">
			<stop  offset="0" style="stop-color:#CF59E6"/>
			<stop  offset="0.1889" style="stop-color:#C267E8"/>
			<stop  offset="0.5488" style="stop-color:#9F8DEF"/>
			<stop  offset="1" style="stop-color:#6BC5F8"/>
		</linearGradient>
		<path class="st0" d="M45,37.9c-5.5,7.3-17.7,7.5-28.5,1.2c-0.5-0.3-1-0.6-1.5-0.9c-0.8-0.5-1.6-1-2.3-1.6C1,27.6-3.4,13.8,2.8,5.7
			c4.9-6.4,15-7.4,24.7-3.1C28,2.8,28.3,3.4,28.1,4v0.1c-0.2,0.6-0.9,0.8-1.4,0.6C20.8,2.5,14.9,3.3,12,7.2
			c-3.9,5.2-1.1,13.9,6.3,19.6c0.3,0.2,0.6,0.4,0.9,0.6c0.6,0.4,1.2,0.8,1.8,1.1c6.8,3.9,14.4,3.7,17.9-0.9
			C42.8,22.4,40,13.7,32.6,8C32,7.6,31.5,7.2,31,6.9c-0.5-0.3-0.6-0.9-0.4-1.4l0,0C30.8,5,31.4,4.7,32,5h0.1c1,0.6,2,1.3,3,2.1
			C46.8,16,51.2,29.8,45,37.9z"/>
	</g>
</g>
</svg>
